<?xml version="1.0" encoding="UTF-8"?>
<svg id="Layer_1" xmlns="http://www.w3.org/2000/svg" version="1.1" viewBox="0 0 368.5 184.25">
  <!-- Generator: Adobe Illustrator 29.5.1, SVG Export Plug-In . SVG Version: 2.1.0 Build 141)  -->
  <defs>
    <style>
      .st0 {
        stroke-width: .1px;
      }

      .st0, .st1 {
        stroke: #1d4273;
      }

      .st0, .st2 {
        fill: #04c4d9;
        fill-opacity: .75;
        stroke-opacity: .9;
      }

      .st1, .st3, .st4, .st5, .st6, .st7, .st8 {
        fill: none;
      }

      .st1, .st3, .st6, .st7, .st8, .st9 {
        stroke-linejoin: round;
      }

      .st1, .st5, .st7 {
        stroke-linecap: square;
      }

      .st1, .st7 {
        stroke-width: 2px;
      }

      .st10, .st11 {
        font-family: ArialMT, Arial;
        font-size: 10px;
      }

      .st3 {
        stroke: red;
      }

      .st3, .st6, .st8 {
        stroke-dasharray: 5.55 2.4;
        stroke-width: 1.5px;
      }

      .st2, .st5, .st12, .st9, .st13 {
        stroke: #000;
      }

      .st2, .st12 {
        stroke-width: .5px;
      }

      .st5, .st9 {
        stroke-width: .8px;
      }

      .st6 {
        stroke: #ffb836;
      }

      .st7 {
        stroke: #ce3d30;
      }

      .st8 {
        stroke: #1b61ff;
      }

      .st12, .st13 {
        fill: #f24738;
        fill-opacity: .5;
      }

      .st11 {
        isolation: isolate;
      }
    </style>
  </defs>
  <rect class="st4" x="43.04" y="34.71" width="282.42" height="107.58"/>
  <path class="st12" d="M87.8,142.29h8.8v-51.23h-8.8v51.23Z"/>
  <rect class="st4" x="43.04" y="34.71" width="282.42" height="107.58"/>
  <path class="st13" d="M96.59,142.29h8.8-8.8Z"/>
  <rect class="st4" x="43.04" y="34.71" width="282.42" height="107.58"/>
  <path class="st12" d="M105.39,142.29h8.8v-51.23h-8.8v51.23Z"/>
  <rect class="st4" x="43.04" y="34.71" width="282.42" height="107.58"/>
  <path class="st13" d="M114.19,142.29h8.8-8.8Z"/>
  <rect class="st4" x="43.04" y="34.71" width="282.42" height="107.58"/>
  <path class="st13" d="M122.98,142.29h8.8-8.8Z"/>
  <rect class="st4" x="43.04" y="34.71" width="282.42" height="107.58"/>
  <path class="st12" d="M131.78,142.29h8.8V39.83h-8.8v102.46Z"/>
  <rect class="st4" x="43.04" y="34.71" width="282.42" height="107.58"/>
  <path class="st12" d="M140.57,142.29h8.8v-51.23h-8.8v51.23Z"/>
  <rect class="st4" x="43.04" y="34.71" width="282.42" height="107.58"/>
  <path class="st2" d="M294.04,142.29h.99v-51.23h-.99v51.23Z"/>
  <rect class="st4" x="43.04" y="34.71" width="282.42" height="107.58"/>
  <path class="st0" d="M295.02,142.29h.99-.99Z"/>
  <rect class="st4" x="43.04" y="34.71" width="282.42" height="107.58"/>
  <path class="st0" d="M296.01,142.29h.99-.99Z"/>
  <rect class="st4" x="43.04" y="34.71" width="282.42" height="107.58"/>
  <path class="st0" d="M297,142.29h.99-.99Z"/>
  <rect class="st4" x="43.04" y="34.71" width="282.42" height="107.58"/>
  <path class="st2" d="M297.98,142.29h.99v-51.23h-.99v51.23Z"/>
  <rect class="st4" x="43.04" y="34.71" width="282.42" height="107.58"/>
  <path class="st2" d="M298.97,142.29h.99v-51.23h-.99v51.23Z"/>
  <rect class="st4" x="43.04" y="34.71" width="282.42" height="107.58"/>
  <path class="st2" d="M299.96,142.29h.99v-51.23h-.99v51.23Z"/>
  <rect class="st4" x="43.04" y="34.71" width="282.42" height="107.58"/>
  <path class="st0" d="M300.95,142.29h.99-.99Z"/>
  <rect class="st4" x="43.04" y="34.71" width="282.42" height="107.58"/>
  <path class="st0" d="M301.93,142.29h.99-.99Z"/>
  <rect class="st4" x="43.04" y="34.71" width="282.42" height="107.58"/>
  <path class="st0" d="M302.92,142.29h.99-.99Z"/>
  <rect class="st4" x="43.04" y="34.71" width="282.42" height="107.58"/>
  <path class="st0" d="M303.91,142.29h.99-.99Z"/>
  <rect class="st4" x="43.04" y="34.71" width="282.42" height="107.58"/>
  <path class="st0" d="M304.89,142.29h.99-.99Z"/>
  <rect class="st4" x="43.04" y="34.71" width="282.42" height="107.58"/>
  <path class="st2" d="M305.88,142.29h.99v-51.23h-.99v51.23Z"/>
  <path id="m120bd6947e" class="st9" d="M70.39,142.29v3.5"/>
  <text class="st11" transform="translate(60.66 156.45)"><tspan x="0" y="0">0.60</tspan></text>
  <path id="m120bd6947e1" data-name="m120bd6947e" class="st9" d="M107.12,142.29v3.5"/>
  <text class="st11" transform="translate(97.38 156.45)"><tspan x="0" y="0">0.65</tspan></text>
  <path id="m120bd6947e2" data-name="m120bd6947e" class="st9" d="M143.84,142.29v3.5"/>
  <text class="st11" transform="translate(134.11 156.45)"><tspan x="0" y="0">0.70</tspan></text>
  <path id="m120bd6947e3" data-name="m120bd6947e" class="st9" d="M180.56,142.29v3.5"/>
  <text class="st11" transform="translate(170.83 156.45)"><tspan x="0" y="0">0.75</tspan></text>
  <path id="m120bd6947e4" data-name="m120bd6947e" class="st9" d="M217.28,142.29v3.5"/>
  <text class="st11" transform="translate(207.55 156.45)"><tspan x="0" y="0">0.80</tspan></text>
  <path id="m120bd6947e5" data-name="m120bd6947e" class="st9" d="M254,142.29v3.5"/>
  <text class="st11" transform="translate(244.27 156.45)"><tspan x="0" y="0">0.85</tspan></text>
  <path id="m120bd6947e6" data-name="m120bd6947e" class="st9" d="M290.72,142.29v3.5"/>
  <text class="st11" transform="translate(280.99 156.45)"><tspan x="0" y="0">0.90</tspan></text>
  <text class="st11" transform="translate(163.14 169.6)"><tspan x="0" y="0">Macro F1</tspan></text>
  <path id="mc4612906a3" class="st9" d="M43.04,142.29h-3.5"/>
  <text class="st11" transform="translate(30.48 145.87)"><tspan x="0" y="0">0</tspan></text>
  <path id="mc4612906a31" data-name="mc4612906a3" class="st9" d="M43.04,116.68h-3.5"/>
  <text class="st11" transform="translate(30.48 120.26)"><tspan x="0" y="0">5</tspan></text>
  <path id="mc4612906a32" data-name="mc4612906a3" class="st9" d="M43.04,91.06h-3.5"/>
  <text class="st11" transform="translate(24.92 94.64)"><tspan x="0" y="0">10</tspan></text>
  <path id="mc4612906a33" data-name="mc4612906a3" class="st9" d="M43.04,65.45h-3.5"/>
  <text class="st11" transform="translate(24.92 69.03)"><tspan x="0" y="0">15</tspan></text>
  <path id="mc4612906a34" data-name="mc4612906a3" class="st9" d="M43.04,39.83h-3.5"/>
  <text class="st11" transform="translate(24.92 43.41)"><tspan x="0" y="0">20</tspan></text>
  <text class="st11" transform="translate(18.93 124.9) rotate(-90)"><tspan x="0" y="0">Histogram count</tspan></text>
  <rect class="st4" x="43.04" y="34.71" width="282.42" height="107.58"/>
  <path class="st3" d="M136.02,142.29V28.32"/>
  <rect class="st4" x="43.04" y="34.71" width="282.42" height="107.58"/>
  <path class="st5" d="M43.04,142.29V34.71"/>
  <path class="st5" d="M325.46,142.29V34.71"/>
  <path class="st5" d="M43.04,34.71h282.42"/>
  <path id="mf32a5479e0" class="st9" d="M325.46,142.29h3.5"/>
  <text class="st11" transform="translate(332.46 145.87)"><tspan x="0" y="0">0</tspan></text>
  <path id="mf32a5479e01" data-name="mf32a5479e0" class="st9" d="M325.46,118.35h3.5"/>
  <text class="st11" transform="translate(332.46 121.92)"><tspan x="0" y="0">20</tspan></text>
  <path id="mf32a5479e02" data-name="mf32a5479e0" class="st9" d="M325.46,94.4h3.5"/>
  <text class="st11" transform="translate(332.46 97.98)"><tspan x="0" y="0">40</tspan></text>
  <path id="mf32a5479e03" data-name="mf32a5479e0" class="st9" d="M325.46,70.45h3.5"/>
  <text class="st11" transform="translate(332.46 74.03)"><tspan x="0" y="0">60</tspan></text>
  <path id="mf32a5479e04" data-name="mf32a5479e0" class="st9" d="M325.46,46.51h3.5"/>
  <text class="st11" transform="translate(332.46 50.09)"><tspan x="0" y="0">80</tspan></text>
  <text class="st11" transform="translate(354.74 116.01) rotate(-90)"><tspan x="0" y="0">KDE density</tspan></text>
  <path class="st7" d="M55.88,142.22l5.04-.2,3.78-.36,3.15-.52,3.15-.78,3.15-1.05,3.78-1.53,5.67-2.34,3.15-1.04,2.52-.61,2.52-.41,3.15-.26,3.15-.03,3.15.19,3.15.42,3.15.64,6.93,1.59,1.89.21h1.89s1.89-.27,1.89-.27l1.89-.56,1.89-.85,1.89-1.11,2.52-1.78,5.67-4.19,1.89-1.09,1.89-.78,1.26-.32,1.26-.15,1.26.02,1.26.2,1.26.36,1.89.82,1.89,1.11,2.52,1.81,4.41,3.57,3.78,2.92,2.52,1.68,2.52,1.39,2.52,1.09,2.52.81,2.52.57,3.15.44,3.78.27,3.15.1h0"/>
  <path class="st1" d="M288.28,141.89l.49-.44.49-.8.49-1.36.49-2.15.49-3.12.61-5.4.98-11.24,1.1-12.14.61-4.62.86-4.46.49-2.94.49-4.44.49-6.59.73-13.73,1.22-23.43.37-3.88.24-1.19.12-.13.12.18.24,1.33.37,4.33.49,9.62.86,23.3,1.1,29.11.61,10.66.49,4.73.37,1.36.12.07.12-.11.24-.7.37-2.09.61-5.25.98-8.37.37-1.76.24-.52.12-.05.12.1.24.63.37,1.96.49,4.18,1.22,13.63.86,7.88.61,3.73.61,2.28.49,1.05.49.6.24.18h0"/>
  <path class="st5" d="M325.46,142.29V34.71"/>
  <path class="st5" d="M43.04,142.29h282.42"/>
  <path class="st5" d="M44.04,34.71h281.42"/>
  <path class="st6" d="M312.75,142.29V17.31"/>
  <text class="st11"><tspan x="271.33" y="13.21">Wang et al. (2024)</tspan></text>
  <rect class="st12" x="160.35" y="43.8" width="9.29" height="9.29"/>
  <rect class="st2" x="160.35" y="59.28" width="9.29" height="9.29"/>
  <path class="st8" d="M299.19,142.29V28.32h-11.71"/>
  <text class="st10" transform="translate(174.63 52.65)"><tspan x="0" y="0">Entity-split (ES)</tspan><tspan x="0" y="15">Observation-split (OS)</tspan></text>
  <text class="st10" transform="translate(99.12 25.08)"><tspan x="0" y="0">ES median: 0.69</tspan></text>
  <text class="st10" transform="translate(212.1 31.11)"><tspan x="0" y="0">OS median: 0.91</tspan></text>
</svg>