<?xml version="1.0" encoding="utf-8" standalone="no"?>
<!DOCTYPE svg PUBLIC "-//W3C//DTD SVG 1.1//EN"
  "http://www.w3.org/Graphics/SVG/1.1/DTD/svg11.dtd">
<svg xmlns:xlink="http://www.w3.org/1999/xlink" width="368.503937pt" height="184.251969pt" viewBox="0 0 368.503937 184.251969" xmlns="http://www.w3.org/2000/svg" version="1.1">
 <metadata>
  <rdf:RDF xmlns:dc="http://purl.org/dc/elements/1.1/" xmlns:cc="http://creativecommons.org/ns#" xmlns:rdf="http://www.w3.org/1999/02/22-rdf-syntax-ns#">
   <cc:Work>
    <dc:type rdf:resource="http://purl.org/dc/dcmitype/StillImage"/>
    <dc:date>2025-08-06T09:46:47.083138</dc:date>
    <dc:format>image/svg+xml</dc:format>
    <dc:creator>
     <cc:Agent>
      <dc:title>Matplotlib v3.10.3, https://matplotlib.org/</dc:title>
     </cc:Agent>
    </dc:creator>
   </cc:Work>
  </rdf:RDF>
 </metadata>
 <defs>
  <style type="text/css">*{stroke-linejoin: round; stroke-linecap: butt}</style>
 </defs>
 <g id="figure_1">
  <g id="patch_1">
   <path d="M 0 184.251969 
L 368.503937 184.251969 
L 368.503937 0 
L 0 0 
z
" style="fill: #ffffff"/>
  </g>
  <g id="axes_1">
   <g id="patch_2">
    <path d="M 43.04 142.291969 
L 325.463937 142.291969 
L 325.463937 34.708848 
L 43.04 34.708848 
z
" style="fill: #ffffff"/>
   </g>
   <g id="patch_3">
    <path d="M 87.798239 142.291969 
L 96.593866 142.291969 
L 96.593866 91.061911 
L 87.798239 91.061911 
z
" clip-path="url(#pd73b9c929e)" style="fill: #f24738; fill-opacity: 0.5; stroke: #000000; stroke-linejoin: miter"/>
   </g>
   <g id="patch_4">
    <path d="M 96.593866 142.291969 
L 105.389493 142.291969 
L 105.389493 142.291969 
L 96.593866 142.291969 
z
" clip-path="url(#pd73b9c929e)" style="fill: #f24738; fill-opacity: 0.5; stroke: #000000; stroke-linejoin: miter"/>
   </g>
   <g id="patch_5">
    <path d="M 105.389493 142.291969 
L 114.18512 142.291969 
L 114.18512 91.061911 
L 105.389493 91.061911 
z
" clip-path="url(#pd73b9c929e)" style="fill: #f24738; fill-opacity: 0.5; stroke: #000000; stroke-linejoin: miter"/>
   </g>
   <g id="patch_6">
    <path d="M 114.18512 142.291969 
L 122.980747 142.291969 
L 122.980747 142.291969 
L 114.18512 142.291969 
z
" clip-path="url(#pd73b9c929e)" style="fill: #f24738; fill-opacity: 0.5; stroke: #000000; stroke-linejoin: miter"/>
   </g>
   <g id="patch_7">
    <path d="M 122.980747 142.291969 
L 131.776373 142.291969 
L 131.776373 142.291969 
L 122.980747 142.291969 
z
" clip-path="url(#pd73b9c929e)" style="fill: #f24738; fill-opacity: 0.5; stroke: #000000; stroke-linejoin: miter"/>
   </g>
   <g id="patch_8">
    <path d="M 131.776373 142.291969 
L 140.572 142.291969 
L 140.572 39.831854 
L 131.776373 39.831854 
z
" clip-path="url(#pd73b9c929e)" style="fill: #f24738; fill-opacity: 0.5; stroke: #000000; stroke-linejoin: miter"/>
   </g>
   <g id="patch_9">
    <path d="M 140.572 142.291969 
L 149.367627 142.291969 
L 149.367627 91.061911 
L 140.572 91.061911 
z
" clip-path="url(#pd73b9c929e)" style="fill: #f24738; fill-opacity: 0.5; stroke: #000000; stroke-linejoin: miter"/>
   </g>
   <g id="patch_10">
    <path d="M 294.036169 142.291969 
L 295.023226 142.291969 
L 295.023226 91.061911 
L 294.036169 91.061911 
z
" clip-path="url(#pd73b9c929e)" style="fill: #04c4d9; fill-opacity: 0.75; stroke: #1d4273; stroke-opacity: 0.9; stroke-width: 0.102102; stroke-linejoin: miter"/>
   </g>
   <g id="patch_11">
    <path d="M 295.023226 142.291969 
L 296.010283 142.291969 
L 296.010283 142.291969 
L 295.023226 142.291969 
z
" clip-path="url(#pd73b9c929e)" style="fill: #04c4d9; fill-opacity: 0.75; stroke: #1d4273; stroke-opacity: 0.9; stroke-width: 0.102102; stroke-linejoin: miter"/>
   </g>
   <g id="patch_12">
    <path d="M 296.010283 142.291969 
L 296.99734 142.291969 
L 296.99734 142.291969 
L 296.010283 142.291969 
z
" clip-path="url(#pd73b9c929e)" style="fill: #04c4d9; fill-opacity: 0.75; stroke: #1d4273; stroke-opacity: 0.9; stroke-width: 0.102102; stroke-linejoin: miter"/>
   </g>
   <g id="patch_13">
    <path d="M 296.99734 142.291969 
L 297.984397 142.291969 
L 297.984397 142.291969 
L 296.99734 142.291969 
z
" clip-path="url(#pd73b9c929e)" style="fill: #04c4d9; fill-opacity: 0.75; stroke: #1d4273; stroke-opacity: 0.9; stroke-width: 0.102102; stroke-linejoin: miter"/>
   </g>
   <g id="patch_14">
    <path d="M 297.984397 142.291969 
L 298.971454 142.291969 
L 298.971454 91.061911 
L 297.984397 91.061911 
z
" clip-path="url(#pd73b9c929e)" style="fill: #04c4d9; fill-opacity: 0.75; stroke: #1d4273; stroke-opacity: 0.9; stroke-width: 0.102102; stroke-linejoin: miter"/>
   </g>
   <g id="patch_15">
    <path d="M 298.971454 142.291969 
L 299.958511 142.291969 
L 299.958511 91.061911 
L 298.971454 91.061911 
z
" clip-path="url(#pd73b9c929e)" style="fill: #04c4d9; fill-opacity: 0.75; stroke: #1d4273; stroke-opacity: 0.9; stroke-width: 0.102102; stroke-linejoin: miter"/>
   </g>
   <g id="patch_16">
    <path d="M 299.958511 142.291969 
L 300.945568 142.291969 
L 300.945568 91.061911 
L 299.958511 91.061911 
z
" clip-path="url(#pd73b9c929e)" style="fill: #04c4d9; fill-opacity: 0.75; stroke: #1d4273; stroke-opacity: 0.9; stroke-width: 0.102102; stroke-linejoin: miter"/>
   </g>
   <g id="patch_17">
    <path d="M 300.945568 142.291969 
L 301.932625 142.291969 
L 301.932625 142.291969 
L 300.945568 142.291969 
z
" clip-path="url(#pd73b9c929e)" style="fill: #04c4d9; fill-opacity: 0.75; stroke: #1d4273; stroke-opacity: 0.9; stroke-width: 0.102102; stroke-linejoin: miter"/>
   </g>
   <g id="patch_18">
    <path d="M 301.932625 142.291969 
L 302.919682 142.291969 
L 302.919682 142.291969 
L 301.932625 142.291969 
z
" clip-path="url(#pd73b9c929e)" style="fill: #04c4d9; fill-opacity: 0.75; stroke: #1d4273; stroke-opacity: 0.9; stroke-width: 0.102102; stroke-linejoin: miter"/>
   </g>
   <g id="patch_19">
    <path d="M 302.919682 142.291969 
L 303.90674 142.291969 
L 303.90674 142.291969 
L 302.919682 142.291969 
z
" clip-path="url(#pd73b9c929e)" style="fill: #04c4d9; fill-opacity: 0.75; stroke: #1d4273; stroke-opacity: 0.9; stroke-width: 0.102102; stroke-linejoin: miter"/>
   </g>
   <g id="patch_20">
    <path d="M 303.90674 142.291969 
L 304.893797 142.291969 
L 304.893797 142.291969 
L 303.90674 142.291969 
z
" clip-path="url(#pd73b9c929e)" style="fill: #04c4d9; fill-opacity: 0.75; stroke: #1d4273; stroke-opacity: 0.9; stroke-width: 0.102102; stroke-linejoin: miter"/>
   </g>
   <g id="patch_21">
    <path d="M 304.893797 142.291969 
L 305.880854 142.291969 
L 305.880854 142.291969 
L 304.893797 142.291969 
z
" clip-path="url(#pd73b9c929e)" style="fill: #04c4d9; fill-opacity: 0.75; stroke: #1d4273; stroke-opacity: 0.9; stroke-width: 0.102102; stroke-linejoin: miter"/>
   </g>
   <g id="patch_22">
    <path d="M 305.880854 142.291969 
L 306.867911 142.291969 
L 306.867911 91.061911 
L 305.880854 91.061911 
z
" clip-path="url(#pd73b9c929e)" style="fill: #04c4d9; fill-opacity: 0.75; stroke: #1d4273; stroke-opacity: 0.9; stroke-width: 0.102102; stroke-linejoin: miter"/>
   </g>
   <g id="matplotlib.axis_1">
    <g id="xtick_1">
     <g id="line2d_1">
      <defs>
       <path id="mec30ba2245" d="M 0 0 
L 0 3.5 
" style="stroke: #000000; stroke-width: 0.8"/>
      </defs>
      <g>
       <use xlink:href="#mec30ba2245" x="70.394909" y="142.291969" style="stroke: #000000; stroke-width: 0.8"/>
      </g>
     </g>
     <g id="text_1">
      <text style="font-size: 10px; font-family: 'Arial'; text-anchor: middle" x="70.394909" y="156.449781" transform="rotate(-0 70.394909 156.449781)">0.60</text>
     </g>
    </g>
    <g id="xtick_2">
     <g id="line2d_2">
      <g>
       <use xlink:href="#mec30ba2245" x="107.115936" y="142.291969" style="stroke: #000000; stroke-width: 0.8"/>
      </g>
     </g>
     <g id="text_2">
      <text style="font-size: 10px; font-family: 'Arial'; text-anchor: middle" x="107.115936" y="156.449781" transform="rotate(-0 107.115936 156.449781)">0.65</text>
     </g>
    </g>
    <g id="xtick_3">
     <g id="line2d_3">
      <g>
       <use xlink:href="#mec30ba2245" x="143.836964" y="142.291969" style="stroke: #000000; stroke-width: 0.8"/>
      </g>
     </g>
     <g id="text_3">
      <text style="font-size: 10px; font-family: 'Arial'; text-anchor: middle" x="143.836964" y="156.449781" transform="rotate(-0 143.836964 156.449781)">0.70</text>
     </g>
    </g>
    <g id="xtick_4">
     <g id="line2d_4">
      <g>
       <use xlink:href="#mec30ba2245" x="180.557992" y="142.291969" style="stroke: #000000; stroke-width: 0.8"/>
      </g>
     </g>
     <g id="text_4">
      <text style="font-size: 10px; font-family: 'Arial'; text-anchor: middle" x="180.557992" y="156.449781" transform="rotate(-0 180.557992 156.449781)">0.75</text>
     </g>
    </g>
    <g id="xtick_5">
     <g id="line2d_5">
      <g>
       <use xlink:href="#mec30ba2245" x="217.27902" y="142.291969" style="stroke: #000000; stroke-width: 0.8"/>
      </g>
     </g>
     <g id="text_5">
      <text style="font-size: 10px; font-family: 'Arial'; text-anchor: middle" x="217.27902" y="156.449781" transform="rotate(-0 217.27902 156.449781)">0.80</text>
     </g>
    </g>
    <g id="xtick_6">
     <g id="line2d_6">
      <g>
       <use xlink:href="#mec30ba2245" x="254.000048" y="142.291969" style="stroke: #000000; stroke-width: 0.8"/>
      </g>
     </g>
     <g id="text_6">
      <text style="font-size: 10px; font-family: 'Arial'; text-anchor: middle" x="254.000048" y="156.449781" transform="rotate(-0 254.000048 156.449781)">0.85</text>
     </g>
    </g>
    <g id="xtick_7">
     <g id="line2d_7">
      <g>
       <use xlink:href="#mec30ba2245" x="290.721076" y="142.291969" style="stroke: #000000; stroke-width: 0.8"/>
      </g>
     </g>
     <g id="text_7">
      <text style="font-size: 10px; font-family: 'Arial'; text-anchor: middle" x="290.721076" y="156.449781" transform="rotate(-0 290.721076 156.449781)">0.90</text>
     </g>
    </g>
    <g id="text_8">
     <text style="font-size: 10px; font-family: 'Arial'; text-anchor: middle" x="184.251969" y="169.595094" transform="rotate(-0 184.251969 169.595094)">Macro F1</text>
    </g>
   </g>
   <g id="matplotlib.axis_2">
    <g id="ytick_1">
     <g id="line2d_8">
      <defs>
       <path id="m203ace92a7" d="M 0 0 
L -3.5 0 
" style="stroke: #000000; stroke-width: 0.8"/>
      </defs>
      <g>
       <use xlink:href="#m203ace92a7" x="43.04" y="142.291969" style="stroke: #000000; stroke-width: 0.8"/>
      </g>
     </g>
     <g id="text_9">
      <text style="font-size: 10px; font-family: 'Arial'; text-anchor: end" x="36.04" y="145.870875" transform="rotate(-0 36.04 145.870875)">0</text>
     </g>
    </g>
    <g id="ytick_2">
     <g id="line2d_9">
      <g>
       <use xlink:href="#m203ace92a7" x="43.04" y="116.67694" style="stroke: #000000; stroke-width: 0.8"/>
      </g>
     </g>
     <g id="text_10">
      <text style="font-size: 10px; font-family: 'Arial'; text-anchor: end" x="36.04" y="120.255846" transform="rotate(-0 36.04 120.255846)">5</text>
     </g>
    </g>
    <g id="ytick_3">
     <g id="line2d_10">
      <g>
       <use xlink:href="#m203ace92a7" x="43.04" y="91.061911" style="stroke: #000000; stroke-width: 0.8"/>
      </g>
     </g>
     <g id="text_11">
      <text style="font-size: 10px; font-family: 'Arial'; text-anchor: end" x="36.04" y="94.640818" transform="rotate(-0 36.04 94.640818)">10</text>
     </g>
    </g>
    <g id="ytick_4">
     <g id="line2d_11">
      <g>
       <use xlink:href="#m203ace92a7" x="43.04" y="65.446883" style="stroke: #000000; stroke-width: 0.8"/>
      </g>
     </g>
     <g id="text_12">
      <text style="font-size: 10px; font-family: 'Arial'; text-anchor: end" x="36.04" y="69.025789" transform="rotate(-0 36.04 69.025789)">15</text>
     </g>
    </g>
    <g id="ytick_5">
     <g id="line2d_12">
      <g>
       <use xlink:href="#m203ace92a7" x="43.04" y="39.831854" style="stroke: #000000; stroke-width: 0.8"/>
      </g>
     </g>
     <g id="text_13">
      <text style="font-size: 10px; font-family: 'Arial'; text-anchor: end" x="36.04" y="43.41076" transform="rotate(-0 36.04 43.41076)">20</text>
     </g>
    </g>
    <g id="text_14">
     <text style="font-size: 10px; font-family: 'Arial'; text-anchor: middle" x="18.930625" y="88.500408" transform="rotate(-90 18.930625 88.500408)">Count</text>
    </g>
   </g>
   <g id="line2d_13">
    <path d="M 136.02398 142.291969 
L 136.02398 34.708848 
" clip-path="url(#pd73b9c929e)" style="fill: none; stroke-dasharray: 5.55,2.4; stroke-dashoffset: 0; stroke: #ff0000; stroke-width: 1.5"/>
   </g>
   <g id="line2d_14">
    <path d="M 299.187586 142.291969 
L 299.187586 34.708848 
" clip-path="url(#pd73b9c929e)" style="fill: none; stroke-dasharray: 5.55,2.4; stroke-dashoffset: 0; stroke: #0000ff; stroke-width: 1.5"/>
   </g>
   <g id="patch_23">
    <path d="M 43.04 142.291969 
L 43.04 34.708848 
" style="fill: none; stroke: #000000; stroke-width: 0.8; stroke-linejoin: miter; stroke-linecap: square"/>
   </g>
   <g id="patch_24">
    <path d="M 325.463937 142.291969 
L 325.463937 34.708848 
" style="fill: none; stroke: #000000; stroke-width: 0.8; stroke-linejoin: miter; stroke-linecap: square"/>
   </g>
   <g id="patch_25">
    <path d="M 43.04 142.291969 
L 325.463937 142.291969 
" style="fill: none; stroke: #000000; stroke-width: 0.8; stroke-linejoin: miter; stroke-linecap: square"/>
   </g>
   <g id="patch_26">
    <path d="M 43.04 34.708848 
L 325.463937 34.708848 
" style="fill: none; stroke: #000000; stroke-width: 0.8; stroke-linejoin: miter; stroke-linecap: square"/>
   </g>
   <g id="text_15">
    <text style="font-size: 12px; font-family: 'Arial'; text-anchor: middle" x="184.251969" y="28.708848" transform="rotate(-0 184.251969 28.708848)">Splitting strategy comparison</text>
   </g>
   <g id="legend_1">
    <g id="patch_27">
     <path d="M 205.58425 70.999473 
L 318.463937 70.999473 
Q 320.463937 70.999473 320.463937 68.999473 
L 320.463937 41.708848 
Q 320.463937 39.708848 318.463937 39.708848 
L 205.58425 39.708848 
Q 203.58425 39.708848 203.58425 41.708848 
L 203.58425 68.999473 
Q 203.58425 70.999473 205.58425 70.999473 
z
" style="fill: #ffffff; opacity: 0.8; stroke: #cccccc; stroke-linejoin: miter"/>
    </g>
    <g id="line2d_15">
     <path d="M 207.58425 47.366661 
L 217.58425 47.366661 
L 227.58425 47.366661 
" style="fill: none; stroke-dasharray: 5.55,2.4; stroke-dashoffset: 0; stroke: #ff0000; stroke-width: 1.5"/>
    </g>
    <g id="text_16">
     <text style="font-size: 10px; font-family: 'Arial'; text-anchor: start" x="235.58425" y="50.866661" transform="rotate(-0 235.58425 50.866661)">ES median = 0.69</text>
    </g>
    <g id="line2d_16">
     <path d="M 207.58425 61.511973 
L 217.58425 61.511973 
L 227.58425 61.511973 
" style="fill: none; stroke-dasharray: 5.55,2.4; stroke-dashoffset: 0; stroke: #0000ff; stroke-width: 1.5"/>
    </g>
    <g id="text_17">
     <text style="font-size: 10px; font-family: 'Arial'; text-anchor: start" x="235.58425" y="65.011973" transform="rotate(-0 235.58425 65.011973)">OS median = 0.91</text>
    </g>
   </g>
  </g>
  <g id="axes_2">
   <g id="matplotlib.axis_3">
    <g id="ytick_6">
     <g id="line2d_17">
      <defs>
       <path id="m9562be71cc" d="M 0 0 
L 3.5 0 
" style="stroke: #000000; stroke-width: 0.8"/>
      </defs>
      <g>
       <use xlink:href="#m9562be71cc" x="325.463937" y="142.291969" style="stroke: #000000; stroke-width: 0.8"/>
      </g>
     </g>
     <g id="text_18">
      <text style="font-size: 10px; font-family: 'Arial'; text-anchor: start" x="332.463937" y="145.870875" transform="rotate(-0 332.463937 145.870875)">0</text>
     </g>
    </g>
    <g id="ytick_7">
     <g id="line2d_18">
      <g>
       <use xlink:href="#m9562be71cc" x="325.463937" y="118.345565" style="stroke: #000000; stroke-width: 0.8"/>
      </g>
     </g>
     <g id="text_19">
      <text style="font-size: 10px; font-family: 'Arial'; text-anchor: start" x="332.463937" y="121.924471" transform="rotate(-0 332.463937 121.924471)">20</text>
     </g>
    </g>
    <g id="ytick_8">
     <g id="line2d_19">
      <g>
       <use xlink:href="#m9562be71cc" x="325.463937" y="94.399161" style="stroke: #000000; stroke-width: 0.8"/>
      </g>
     </g>
     <g id="text_20">
      <text style="font-size: 10px; font-family: 'Arial'; text-anchor: start" x="332.463937" y="97.978067" transform="rotate(-0 332.463937 97.978067)">40</text>
     </g>
    </g>
    <g id="ytick_9">
     <g id="line2d_20">
      <g>
       <use xlink:href="#m9562be71cc" x="325.463937" y="70.452757" style="stroke: #000000; stroke-width: 0.8"/>
      </g>
     </g>
     <g id="text_21">
      <text style="font-size: 10px; font-family: 'Arial'; text-anchor: start" x="332.463937" y="74.031663" transform="rotate(-0 332.463937 74.031663)">60</text>
     </g>
    </g>
    <g id="ytick_10">
     <g id="line2d_21">
      <g>
       <use xlink:href="#m9562be71cc" x="325.463937" y="46.506353" style="stroke: #000000; stroke-width: 0.8"/>
      </g>
     </g>
     <g id="text_22">
      <text style="font-size: 10px; font-family: 'Arial'; text-anchor: start" x="332.463937" y="50.085259" transform="rotate(-0 332.463937 50.085259)">80</text>
     </g>
    </g>
    <g id="text_23">
     <text style="font-size: 10px; font-family: 'Arial'; text-anchor: middle" x="354.743625" y="88.500408" transform="rotate(-90 354.743625 88.500408)">Density</text>
    </g>
   </g>
   <g id="line2d_22">
    <path d="M 55.877452 142.21861 
L 60.919098 142.01981 
L 64.700334 141.663267 
L 67.851363 141.143097 
L 71.002392 140.364038 
L 74.153421 139.316292 
L 77.934656 137.790027 
L 83.606509 135.448705 
L 86.757538 134.411054 
L 89.278361 133.80017 
L 91.799185 133.389222 
L 94.950214 133.124282 
L 98.101243 133.092095 
L 101.252272 133.277123 
L 104.403302 133.693722 
L 107.554331 134.335585 
L 114.486595 135.921497 
L 116.377213 136.132219 
L 118.26783 136.129377 
L 120.158448 135.863908 
L 122.049065 135.307848 
L 123.939683 134.460406 
L 125.8303 133.350927 
L 128.351124 131.569332 
L 134.022976 127.376709 
L 135.913594 126.291686 
L 137.804211 125.512236 
L 139.064623 125.191377 
L 140.325035 125.041509 
L 141.585447 125.066203 
L 142.845858 125.263265 
L 144.10627 125.625201 
L 145.996887 126.449641 
L 147.887505 127.560745 
L 150.408328 129.368525 
L 154.819769 132.936666 
L 158.601004 135.861602 
L 161.121828 137.540146 
L 163.642651 138.931453 
L 166.163474 140.021363 
L 168.684298 140.828575 
L 171.205121 141.393686 
L 174.35615 141.837148 
L 178.137385 142.111257 
L 181.288415 142.21548 
L 181.288415 142.21548 
" clip-path="url(#pd73b9c929e)" style="fill: none; stroke: #ce3d30; stroke-width: 2; stroke-linecap: square"/>
   </g>
   <g id="line2d_23">
    <path d="M 288.277594 141.885843 
L 288.767019 141.447073 
L 289.256444 140.644727 
L 289.745869 139.28204 
L 290.235294 137.13662 
L 290.724719 134.0132 
L 291.3365 128.61405 
L 292.31535 117.376202 
L 293.416556 105.241148 
L 294.028337 100.624608 
L 294.884831 96.161361 
L 295.374256 93.22092 
L 295.863681 88.778897 
L 296.353106 82.184496 
L 297.087243 68.459094 
L 298.310806 45.032836 
L 298.677874 41.153413 
L 298.922587 39.963085 
L 299.044943 39.828361 
L 299.167299 40.011073 
L 299.412012 41.338137 
L 299.77908 45.670826 
L 300.268505 55.286783 
L 301.124999 78.58506 
L 302.226205 107.690309 
L 302.837986 118.354603 
L 303.327411 123.081908 
L 303.69448 124.444454 
L 303.816836 124.514165 
L 303.939192 124.406342 
L 304.183905 123.701423 
L 304.550974 121.60995 
L 305.162755 116.358491 
L 306.141605 107.993214 
L 306.508673 106.232898 
L 306.753386 105.715195 
L 306.875742 105.669264 
L 306.998098 105.768028 
L 307.242811 106.39634 
L 307.60988 108.355429 
L 308.099305 112.532801 
L 309.322867 126.158607 
L 310.179361 134.038259 
L 310.791142 137.765045 
L 311.402923 140.048899 
L 311.892348 141.103161 
L 312.381773 141.701568 
L 312.626485 141.885922 
L 312.626485 141.885922 
" clip-path="url(#pd73b9c929e)" style="fill: none; stroke: #1d4273; stroke-width: 2; stroke-linecap: square"/>
   </g>
   <g id="patch_28">
    <path d="M 43.04 142.291969 
L 43.04 34.708848 
" style="fill: none; stroke: #000000; stroke-width: 0.8; stroke-linejoin: miter; stroke-linecap: square"/>
   </g>
   <g id="patch_29">
    <path d="M 325.463937 142.291969 
L 325.463937 34.708848 
" style="fill: none; stroke: #000000; stroke-width: 0.8; stroke-linejoin: miter; stroke-linecap: square"/>
   </g>
   <g id="patch_30">
    <path d="M 43.04 142.291969 
L 325.463937 142.291969 
" style="fill: none; stroke: #000000; stroke-width: 0.8; stroke-linejoin: miter; stroke-linecap: square"/>
   </g>
   <g id="patch_31">
    <path d="M 43.04 34.708848 
L 325.463937 34.708848 
" style="fill: none; stroke: #000000; stroke-width: 0.8; stroke-linejoin: miter; stroke-linecap: square"/>
   </g>
  </g>
 </g>
 <defs>
  <clipPath id="pd73b9c929e">
   <rect x="43.04" y="34.708848" width="282.423937" height="107.58312"/>
  </clipPath>
 </defs>
</svg>
