<?xml version="1.0" encoding="utf-8" standalone="no"?>
<!DOCTYPE svg PUBLIC "-//W3C//DTD SVG 1.1//EN"
  "http://www.w3.org/Graphics/SVG/1.1/DTD/svg11.dtd">
<svg xmlns:xlink="http://www.w3.org/1999/xlink" width="369.216pt" height="183.168pt" viewBox="0 0 369.216 183.168" xmlns="http://www.w3.org/2000/svg" version="1.1">
 <metadata>
  <rdf:RDF xmlns:dc="http://purl.org/dc/elements/1.1/" xmlns:cc="http://creativecommons.org/ns#" xmlns:rdf="http://www.w3.org/1999/02/22-rdf-syntax-ns#">
   <cc:Work>
    <dc:type rdf:resource="http://purl.org/dc/dcmitype/StillImage"/>
    <dc:date>2025-05-30T12:52:41.133790</dc:date>
    <dc:format>image/svg+xml</dc:format>
    <dc:creator>
     <cc:Agent>
      <dc:title>Matplotlib v3.8.4, https://matplotlib.org/</dc:title>
     </cc:Agent>
    </dc:creator>
   </cc:Work>
  </rdf:RDF>
 </metadata>
 <defs>
  <style type="text/css">*{stroke-linejoin: round; stroke-linecap: butt}</style>
 </defs>
 <g id="figure_1">
  <g id="patch_1">
   <path d="M 0 183.168 
L 369.216 183.168 
L 369.216 0 
L 0 0 
z
" style="fill: #ffffff"/>
  </g>
  <g id="axes_1">
   <g id="patch_2">
    <path d="M 43.123167 141.454854 
L 130.122921 141.454854 
L 130.122921 34.504654 
L 43.123167 34.504654 
z
" style="fill: #ffffff"/>
   </g>
   <g id="patch_3">
    <path d="M 55.336853 141.454854 
L 56.194009 141.454854 
L 56.194009 39.59752 
L 55.336853 39.59752 
z
" clip-path="url(#p56af155128)" style="fill: #f24738; fill-opacity: 0.5; stroke: #000000; stroke-width: 0.161661; stroke-linejoin: miter"/>
   </g>
   <g id="patch_4">
    <path d="M 56.194009 141.454854 
L 57.051165 141.454854 
L 57.051165 94.07935 
L 56.194009 94.07935 
z
" clip-path="url(#p56af155128)" style="fill: #f24738; fill-opacity: 0.5; stroke: #000000; stroke-width: 0.161661; stroke-linejoin: miter"/>
   </g>
   <g id="patch_5">
    <path d="M 57.051165 141.454854 
L 57.908321 141.454854 
L 57.908321 110.660776 
L 57.051165 110.660776 
z
" clip-path="url(#p56af155128)" style="fill: #f24738; fill-opacity: 0.5; stroke: #000000; stroke-width: 0.161661; stroke-linejoin: miter"/>
   </g>
   <g id="patch_6">
    <path d="M 57.908321 141.454854 
L 58.765477 141.454854 
L 58.765477 122.504652 
L 57.908321 122.504652 
z
" clip-path="url(#p56af155128)" style="fill: #f24738; fill-opacity: 0.5; stroke: #000000; stroke-width: 0.161661; stroke-linejoin: miter"/>
   </g>
   <g id="patch_7">
    <path d="M 58.765477 141.454854 
L 59.622633 141.454854 
L 59.622633 131.979753 
L 58.765477 131.979753 
z
" clip-path="url(#p56af155128)" style="fill: #f24738; fill-opacity: 0.5; stroke: #000000; stroke-width: 0.161661; stroke-linejoin: miter"/>
   </g>
   <g id="patch_8">
    <path d="M 59.622633 141.454854 
L 60.479789 141.454854 
L 60.479789 136.717304 
L 59.622633 136.717304 
z
" clip-path="url(#p56af155128)" style="fill: #f24738; fill-opacity: 0.5; stroke: #000000; stroke-width: 0.161661; stroke-linejoin: miter"/>
   </g>
   <g id="patch_9">
    <path d="M 60.479789 141.454854 
L 61.336944 141.454854 
L 61.336944 139.086079 
L 60.479789 139.086079 
z
" clip-path="url(#p56af155128)" style="fill: #f24738; fill-opacity: 0.5; stroke: #000000; stroke-width: 0.161661; stroke-linejoin: miter"/>
   </g>
   <g id="patch_10">
    <path d="M 61.336944 141.454854 
L 62.1941 141.454854 
L 62.1941 141.454854 
L 61.336944 141.454854 
z
" clip-path="url(#p56af155128)" style="fill: #f24738; fill-opacity: 0.5; stroke: #000000; stroke-width: 0.161661; stroke-linejoin: miter"/>
   </g>
   <g id="patch_11">
    <path d="M 62.1941 141.454854 
L 63.051256 141.454854 
L 63.051256 136.717304 
L 62.1941 136.717304 
z
" clip-path="url(#p56af155128)" style="fill: #f24738; fill-opacity: 0.5; stroke: #000000; stroke-width: 0.161661; stroke-linejoin: miter"/>
   </g>
   <g id="patch_12">
    <path d="M 63.051256 141.454854 
L 63.908412 141.454854 
L 63.908412 134.348528 
L 63.051256 134.348528 
z
" clip-path="url(#p56af155128)" style="fill: #f24738; fill-opacity: 0.5; stroke: #000000; stroke-width: 0.161661; stroke-linejoin: miter"/>
   </g>
   <g id="patch_13">
    <path d="M 63.908412 141.454854 
L 64.765568 141.454854 
L 64.765568 141.454854 
L 63.908412 141.454854 
z
" clip-path="url(#p56af155128)" style="fill: #f24738; fill-opacity: 0.5; stroke: #000000; stroke-width: 0.161661; stroke-linejoin: miter"/>
   </g>
   <g id="patch_14">
    <path d="M 64.765568 141.454854 
L 65.622724 141.454854 
L 65.622724 139.086079 
L 64.765568 139.086079 
z
" clip-path="url(#p56af155128)" style="fill: #f24738; fill-opacity: 0.5; stroke: #000000; stroke-width: 0.161661; stroke-linejoin: miter"/>
   </g>
   <g id="patch_15">
    <path d="M 65.622724 141.454854 
L 66.47988 141.454854 
L 66.47988 141.454854 
L 65.622724 141.454854 
z
" clip-path="url(#p56af155128)" style="fill: #f24738; fill-opacity: 0.5; stroke: #000000; stroke-width: 0.161661; stroke-linejoin: miter"/>
   </g>
   <g id="patch_16">
    <path d="M 66.47988 141.454854 
L 67.337036 141.454854 
L 67.337036 141.454854 
L 66.47988 141.454854 
z
" clip-path="url(#p56af155128)" style="fill: #f24738; fill-opacity: 0.5; stroke: #000000; stroke-width: 0.161661; stroke-linejoin: miter"/>
   </g>
   <g id="patch_17">
    <path d="M 67.337036 141.454854 
L 68.194192 141.454854 
L 68.194192 141.454854 
L 67.337036 141.454854 
z
" clip-path="url(#p56af155128)" style="fill: #f24738; fill-opacity: 0.5; stroke: #000000; stroke-width: 0.161661; stroke-linejoin: miter"/>
   </g>
   <g id="patch_18">
    <path d="M 68.194192 141.454854 
L 69.051348 141.454854 
L 69.051348 141.454854 
L 68.194192 141.454854 
z
" clip-path="url(#p56af155128)" style="fill: #f24738; fill-opacity: 0.5; stroke: #000000; stroke-width: 0.161661; stroke-linejoin: miter"/>
   </g>
   <g id="patch_19">
    <path d="M 69.051348 141.454854 
L 69.908504 141.454854 
L 69.908504 141.454854 
L 69.051348 141.454854 
z
" clip-path="url(#p56af155128)" style="fill: #f24738; fill-opacity: 0.5; stroke: #000000; stroke-width: 0.161661; stroke-linejoin: miter"/>
   </g>
   <g id="patch_20">
    <path d="M 69.908504 141.454854 
L 70.765659 141.454854 
L 70.765659 139.086079 
L 69.908504 139.086079 
z
" clip-path="url(#p56af155128)" style="fill: #f24738; fill-opacity: 0.5; stroke: #000000; stroke-width: 0.161661; stroke-linejoin: miter"/>
   </g>
   <g id="patch_21">
    <path d="M 70.765659 141.454854 
L 71.622815 141.454854 
L 71.622815 141.454854 
L 70.765659 141.454854 
z
" clip-path="url(#p56af155128)" style="fill: #f24738; fill-opacity: 0.5; stroke: #000000; stroke-width: 0.161661; stroke-linejoin: miter"/>
   </g>
   <g id="patch_22">
    <path d="M 71.622815 141.454854 
L 72.479971 141.454854 
L 72.479971 141.454854 
L 71.622815 141.454854 
z
" clip-path="url(#p56af155128)" style="fill: #f24738; fill-opacity: 0.5; stroke: #000000; stroke-width: 0.161661; stroke-linejoin: miter"/>
   </g>
   <g id="patch_23">
    <path d="M 72.479971 141.454854 
L 73.337127 141.454854 
L 73.337127 141.454854 
L 72.479971 141.454854 
z
" clip-path="url(#p56af155128)" style="fill: #f24738; fill-opacity: 0.5; stroke: #000000; stroke-width: 0.161661; stroke-linejoin: miter"/>
   </g>
   <g id="patch_24">
    <path d="M 73.337127 141.454854 
L 74.194283 141.454854 
L 74.194283 141.454854 
L 73.337127 141.454854 
z
" clip-path="url(#p56af155128)" style="fill: #f24738; fill-opacity: 0.5; stroke: #000000; stroke-width: 0.161661; stroke-linejoin: miter"/>
   </g>
   <g id="patch_25">
    <path d="M 74.194283 141.454854 
L 75.051439 141.454854 
L 75.051439 141.454854 
L 74.194283 141.454854 
z
" clip-path="url(#p56af155128)" style="fill: #f24738; fill-opacity: 0.5; stroke: #000000; stroke-width: 0.161661; stroke-linejoin: miter"/>
   </g>
   <g id="patch_26">
    <path d="M 75.051439 141.454854 
L 75.908595 141.454854 
L 75.908595 141.454854 
L 75.051439 141.454854 
z
" clip-path="url(#p56af155128)" style="fill: #f24738; fill-opacity: 0.5; stroke: #000000; stroke-width: 0.161661; stroke-linejoin: miter"/>
   </g>
   <g id="patch_27">
    <path d="M 75.908595 141.454854 
L 76.765751 141.454854 
L 76.765751 141.454854 
L 75.908595 141.454854 
z
" clip-path="url(#p56af155128)" style="fill: #f24738; fill-opacity: 0.5; stroke: #000000; stroke-width: 0.161661; stroke-linejoin: miter"/>
   </g>
   <g id="patch_28">
    <path d="M 76.765751 141.454854 
L 77.622907 141.454854 
L 77.622907 141.454854 
L 76.765751 141.454854 
z
" clip-path="url(#p56af155128)" style="fill: #f24738; fill-opacity: 0.5; stroke: #000000; stroke-width: 0.161661; stroke-linejoin: miter"/>
   </g>
   <g id="patch_29">
    <path d="M 77.622907 141.454854 
L 78.480063 141.454854 
L 78.480063 141.454854 
L 77.622907 141.454854 
z
" clip-path="url(#p56af155128)" style="fill: #f24738; fill-opacity: 0.5; stroke: #000000; stroke-width: 0.161661; stroke-linejoin: miter"/>
   </g>
   <g id="patch_30">
    <path d="M 78.480063 141.454854 
L 79.337219 141.454854 
L 79.337219 141.454854 
L 78.480063 141.454854 
z
" clip-path="url(#p56af155128)" style="fill: #f24738; fill-opacity: 0.5; stroke: #000000; stroke-width: 0.161661; stroke-linejoin: miter"/>
   </g>
   <g id="patch_31">
    <path d="M 79.337219 141.454854 
L 80.194374 141.454854 
L 80.194374 141.454854 
L 79.337219 141.454854 
z
" clip-path="url(#p56af155128)" style="fill: #f24738; fill-opacity: 0.5; stroke: #000000; stroke-width: 0.161661; stroke-linejoin: miter"/>
   </g>
   <g id="patch_32">
    <path d="M 80.194374 141.454854 
L 81.05153 141.454854 
L 81.05153 139.086079 
L 80.194374 139.086079 
z
" clip-path="url(#p56af155128)" style="fill: #f24738; fill-opacity: 0.5; stroke: #000000; stroke-width: 0.161661; stroke-linejoin: miter"/>
   </g>
   <g id="patch_33">
    <path d="M 81.05153 141.454854 
L 81.908686 141.454854 
L 81.908686 141.454854 
L 81.05153 141.454854 
z
" clip-path="url(#p56af155128)" style="fill: #f24738; fill-opacity: 0.5; stroke: #000000; stroke-width: 0.161661; stroke-linejoin: miter"/>
   </g>
   <g id="patch_34">
    <path d="M 81.908686 141.454854 
L 82.765842 141.454854 
L 82.765842 141.454854 
L 81.908686 141.454854 
z
" clip-path="url(#p56af155128)" style="fill: #f24738; fill-opacity: 0.5; stroke: #000000; stroke-width: 0.161661; stroke-linejoin: miter"/>
   </g>
   <g id="patch_35">
    <path d="M 82.765842 141.454854 
L 83.622998 141.454854 
L 83.622998 141.454854 
L 82.765842 141.454854 
z
" clip-path="url(#p56af155128)" style="fill: #f24738; fill-opacity: 0.5; stroke: #000000; stroke-width: 0.161661; stroke-linejoin: miter"/>
   </g>
   <g id="patch_36">
    <path d="M 83.622998 141.454854 
L 84.480154 141.454854 
L 84.480154 141.454854 
L 83.622998 141.454854 
z
" clip-path="url(#p56af155128)" style="fill: #f24738; fill-opacity: 0.5; stroke: #000000; stroke-width: 0.161661; stroke-linejoin: miter"/>
   </g>
   <g id="patch_37">
    <path d="M 84.480154 141.454854 
L 85.33731 141.454854 
L 85.33731 141.454854 
L 84.480154 141.454854 
z
" clip-path="url(#p56af155128)" style="fill: #f24738; fill-opacity: 0.5; stroke: #000000; stroke-width: 0.161661; stroke-linejoin: miter"/>
   </g>
   <g id="patch_38">
    <path d="M 85.33731 141.454854 
L 86.194466 141.454854 
L 86.194466 141.454854 
L 85.33731 141.454854 
z
" clip-path="url(#p56af155128)" style="fill: #f24738; fill-opacity: 0.5; stroke: #000000; stroke-width: 0.161661; stroke-linejoin: miter"/>
   </g>
   <g id="patch_39">
    <path d="M 86.194466 141.454854 
L 87.051622 141.454854 
L 87.051622 141.454854 
L 86.194466 141.454854 
z
" clip-path="url(#p56af155128)" style="fill: #f24738; fill-opacity: 0.5; stroke: #000000; stroke-width: 0.161661; stroke-linejoin: miter"/>
   </g>
   <g id="patch_40">
    <path d="M 87.051622 141.454854 
L 87.908778 141.454854 
L 87.908778 141.454854 
L 87.051622 141.454854 
z
" clip-path="url(#p56af155128)" style="fill: #f24738; fill-opacity: 0.5; stroke: #000000; stroke-width: 0.161661; stroke-linejoin: miter"/>
   </g>
   <g id="patch_41">
    <path d="M 87.908778 141.454854 
L 88.765934 141.454854 
L 88.765934 141.454854 
L 87.908778 141.454854 
z
" clip-path="url(#p56af155128)" style="fill: #f24738; fill-opacity: 0.5; stroke: #000000; stroke-width: 0.161661; stroke-linejoin: miter"/>
   </g>
   <g id="patch_42">
    <path d="M 88.765934 141.454854 
L 89.62309 141.454854 
L 89.62309 141.454854 
L 88.765934 141.454854 
z
" clip-path="url(#p56af155128)" style="fill: #f24738; fill-opacity: 0.5; stroke: #000000; stroke-width: 0.161661; stroke-linejoin: miter"/>
   </g>
   <g id="patch_43">
    <path d="M 89.62309 141.454854 
L 90.480245 141.454854 
L 90.480245 141.454854 
L 89.62309 141.454854 
z
" clip-path="url(#p56af155128)" style="fill: #f24738; fill-opacity: 0.5; stroke: #000000; stroke-width: 0.161661; stroke-linejoin: miter"/>
   </g>
   <g id="patch_44">
    <path d="M 90.480245 141.454854 
L 91.337401 141.454854 
L 91.337401 141.454854 
L 90.480245 141.454854 
z
" clip-path="url(#p56af155128)" style="fill: #f24738; fill-opacity: 0.5; stroke: #000000; stroke-width: 0.161661; stroke-linejoin: miter"/>
   </g>
   <g id="patch_45">
    <path d="M 91.337401 141.454854 
L 92.194557 141.454854 
L 92.194557 141.454854 
L 91.337401 141.454854 
z
" clip-path="url(#p56af155128)" style="fill: #f24738; fill-opacity: 0.5; stroke: #000000; stroke-width: 0.161661; stroke-linejoin: miter"/>
   </g>
   <g id="patch_46">
    <path d="M 92.194557 141.454854 
L 93.051713 141.454854 
L 93.051713 141.454854 
L 92.194557 141.454854 
z
" clip-path="url(#p56af155128)" style="fill: #f24738; fill-opacity: 0.5; stroke: #000000; stroke-width: 0.161661; stroke-linejoin: miter"/>
   </g>
   <g id="patch_47">
    <path d="M 93.051713 141.454854 
L 93.908869 141.454854 
L 93.908869 141.454854 
L 93.051713 141.454854 
z
" clip-path="url(#p56af155128)" style="fill: #f24738; fill-opacity: 0.5; stroke: #000000; stroke-width: 0.161661; stroke-linejoin: miter"/>
   </g>
   <g id="patch_48">
    <path d="M 93.908869 141.454854 
L 94.766025 141.454854 
L 94.766025 141.454854 
L 93.908869 141.454854 
z
" clip-path="url(#p56af155128)" style="fill: #f24738; fill-opacity: 0.5; stroke: #000000; stroke-width: 0.161661; stroke-linejoin: miter"/>
   </g>
   <g id="patch_49">
    <path d="M 94.766025 141.454854 
L 95.623181 141.454854 
L 95.623181 141.454854 
L 94.766025 141.454854 
z
" clip-path="url(#p56af155128)" style="fill: #f24738; fill-opacity: 0.5; stroke: #000000; stroke-width: 0.161661; stroke-linejoin: miter"/>
   </g>
   <g id="patch_50">
    <path d="M 95.623181 141.454854 
L 96.480337 141.454854 
L 96.480337 141.454854 
L 95.623181 141.454854 
z
" clip-path="url(#p56af155128)" style="fill: #f24738; fill-opacity: 0.5; stroke: #000000; stroke-width: 0.161661; stroke-linejoin: miter"/>
   </g>
   <g id="patch_51">
    <path d="M 96.480337 141.454854 
L 97.337493 141.454854 
L 97.337493 141.454854 
L 96.480337 141.454854 
z
" clip-path="url(#p56af155128)" style="fill: #f24738; fill-opacity: 0.5; stroke: #000000; stroke-width: 0.161661; stroke-linejoin: miter"/>
   </g>
   <g id="patch_52">
    <path d="M 97.337493 141.454854 
L 98.194649 141.454854 
L 98.194649 141.454854 
L 97.337493 141.454854 
z
" clip-path="url(#p56af155128)" style="fill: #f24738; fill-opacity: 0.5; stroke: #000000; stroke-width: 0.161661; stroke-linejoin: miter"/>
   </g>
   <g id="patch_53">
    <path d="M 98.194649 141.454854 
L 99.051805 141.454854 
L 99.051805 141.454854 
L 98.194649 141.454854 
z
" clip-path="url(#p56af155128)" style="fill: #f24738; fill-opacity: 0.5; stroke: #000000; stroke-width: 0.161661; stroke-linejoin: miter"/>
   </g>
   <g id="patch_54">
    <path d="M 99.051805 141.454854 
L 99.90896 141.454854 
L 99.90896 141.454854 
L 99.051805 141.454854 
z
" clip-path="url(#p56af155128)" style="fill: #f24738; fill-opacity: 0.5; stroke: #000000; stroke-width: 0.161661; stroke-linejoin: miter"/>
   </g>
   <g id="patch_55">
    <path d="M 99.90896 141.454854 
L 100.766116 141.454854 
L 100.766116 141.454854 
L 99.90896 141.454854 
z
" clip-path="url(#p56af155128)" style="fill: #f24738; fill-opacity: 0.5; stroke: #000000; stroke-width: 0.161661; stroke-linejoin: miter"/>
   </g>
   <g id="patch_56">
    <path d="M 100.766116 141.454854 
L 101.623272 141.454854 
L 101.623272 141.454854 
L 100.766116 141.454854 
z
" clip-path="url(#p56af155128)" style="fill: #f24738; fill-opacity: 0.5; stroke: #000000; stroke-width: 0.161661; stroke-linejoin: miter"/>
   </g>
   <g id="patch_57">
    <path d="M 101.623272 141.454854 
L 102.480428 141.454854 
L 102.480428 141.454854 
L 101.623272 141.454854 
z
" clip-path="url(#p56af155128)" style="fill: #f24738; fill-opacity: 0.5; stroke: #000000; stroke-width: 0.161661; stroke-linejoin: miter"/>
   </g>
   <g id="patch_58">
    <path d="M 102.480428 141.454854 
L 103.337584 141.454854 
L 103.337584 141.454854 
L 102.480428 141.454854 
z
" clip-path="url(#p56af155128)" style="fill: #f24738; fill-opacity: 0.5; stroke: #000000; stroke-width: 0.161661; stroke-linejoin: miter"/>
   </g>
   <g id="patch_59">
    <path d="M 103.337584 141.454854 
L 104.19474 141.454854 
L 104.19474 141.454854 
L 103.337584 141.454854 
z
" clip-path="url(#p56af155128)" style="fill: #f24738; fill-opacity: 0.5; stroke: #000000; stroke-width: 0.161661; stroke-linejoin: miter"/>
   </g>
   <g id="patch_60">
    <path d="M 104.19474 141.454854 
L 105.051896 141.454854 
L 105.051896 141.454854 
L 104.19474 141.454854 
z
" clip-path="url(#p56af155128)" style="fill: #f24738; fill-opacity: 0.5; stroke: #000000; stroke-width: 0.161661; stroke-linejoin: miter"/>
   </g>
   <g id="patch_61">
    <path d="M 105.051896 141.454854 
L 105.909052 141.454854 
L 105.909052 141.454854 
L 105.051896 141.454854 
z
" clip-path="url(#p56af155128)" style="fill: #f24738; fill-opacity: 0.5; stroke: #000000; stroke-width: 0.161661; stroke-linejoin: miter"/>
   </g>
   <g id="patch_62">
    <path d="M 105.909052 141.454854 
L 106.766208 141.454854 
L 106.766208 141.454854 
L 105.909052 141.454854 
z
" clip-path="url(#p56af155128)" style="fill: #f24738; fill-opacity: 0.5; stroke: #000000; stroke-width: 0.161661; stroke-linejoin: miter"/>
   </g>
   <g id="patch_63">
    <path d="M 106.766208 141.454854 
L 107.623364 141.454854 
L 107.623364 141.454854 
L 106.766208 141.454854 
z
" clip-path="url(#p56af155128)" style="fill: #f24738; fill-opacity: 0.5; stroke: #000000; stroke-width: 0.161661; stroke-linejoin: miter"/>
   </g>
   <g id="patch_64">
    <path d="M 107.623364 141.454854 
L 108.48052 141.454854 
L 108.48052 141.454854 
L 107.623364 141.454854 
z
" clip-path="url(#p56af155128)" style="fill: #f24738; fill-opacity: 0.5; stroke: #000000; stroke-width: 0.161661; stroke-linejoin: miter"/>
   </g>
   <g id="patch_65">
    <path d="M 108.48052 141.454854 
L 109.337675 141.454854 
L 109.337675 141.454854 
L 108.48052 141.454854 
z
" clip-path="url(#p56af155128)" style="fill: #f24738; fill-opacity: 0.5; stroke: #000000; stroke-width: 0.161661; stroke-linejoin: miter"/>
   </g>
   <g id="patch_66">
    <path d="M 109.337675 141.454854 
L 110.194831 141.454854 
L 110.194831 141.454854 
L 109.337675 141.454854 
z
" clip-path="url(#p56af155128)" style="fill: #f24738; fill-opacity: 0.5; stroke: #000000; stroke-width: 0.161661; stroke-linejoin: miter"/>
   </g>
   <g id="patch_67">
    <path d="M 110.194831 141.454854 
L 111.051987 141.454854 
L 111.051987 141.454854 
L 110.194831 141.454854 
z
" clip-path="url(#p56af155128)" style="fill: #f24738; fill-opacity: 0.5; stroke: #000000; stroke-width: 0.161661; stroke-linejoin: miter"/>
   </g>
   <g id="patch_68">
    <path d="M 111.051987 141.454854 
L 111.909143 141.454854 
L 111.909143 141.454854 
L 111.051987 141.454854 
z
" clip-path="url(#p56af155128)" style="fill: #f24738; fill-opacity: 0.5; stroke: #000000; stroke-width: 0.161661; stroke-linejoin: miter"/>
   </g>
   <g id="patch_69">
    <path d="M 111.909143 141.454854 
L 112.766299 141.454854 
L 112.766299 141.454854 
L 111.909143 141.454854 
z
" clip-path="url(#p56af155128)" style="fill: #f24738; fill-opacity: 0.5; stroke: #000000; stroke-width: 0.161661; stroke-linejoin: miter"/>
   </g>
   <g id="patch_70">
    <path d="M 112.766299 141.454854 
L 113.623455 141.454854 
L 113.623455 141.454854 
L 112.766299 141.454854 
z
" clip-path="url(#p56af155128)" style="fill: #f24738; fill-opacity: 0.5; stroke: #000000; stroke-width: 0.161661; stroke-linejoin: miter"/>
   </g>
   <g id="patch_71">
    <path d="M 113.623455 141.454854 
L 114.480611 141.454854 
L 114.480611 141.454854 
L 113.623455 141.454854 
z
" clip-path="url(#p56af155128)" style="fill: #f24738; fill-opacity: 0.5; stroke: #000000; stroke-width: 0.161661; stroke-linejoin: miter"/>
   </g>
   <g id="patch_72">
    <path d="M 114.480611 141.454854 
L 115.337767 141.454854 
L 115.337767 141.454854 
L 114.480611 141.454854 
z
" clip-path="url(#p56af155128)" style="fill: #f24738; fill-opacity: 0.5; stroke: #000000; stroke-width: 0.161661; stroke-linejoin: miter"/>
   </g>
   <g id="patch_73">
    <path d="M 115.337767 141.454854 
L 116.194923 141.454854 
L 116.194923 141.454854 
L 115.337767 141.454854 
z
" clip-path="url(#p56af155128)" style="fill: #f24738; fill-opacity: 0.5; stroke: #000000; stroke-width: 0.161661; stroke-linejoin: miter"/>
   </g>
   <g id="patch_74">
    <path d="M 116.194923 141.454854 
L 117.052079 141.454854 
L 117.052079 141.454854 
L 116.194923 141.454854 
z
" clip-path="url(#p56af155128)" style="fill: #f24738; fill-opacity: 0.5; stroke: #000000; stroke-width: 0.161661; stroke-linejoin: miter"/>
   </g>
   <g id="patch_75">
    <path d="M 117.052079 141.454854 
L 117.909235 141.454854 
L 117.909235 139.086079 
L 117.052079 139.086079 
z
" clip-path="url(#p56af155128)" style="fill: #f24738; fill-opacity: 0.5; stroke: #000000; stroke-width: 0.161661; stroke-linejoin: miter"/>
   </g>
   <g id="matplotlib.axis_1">
    <g id="xtick_1">
     <g id="line2d_1">
      <defs>
       <path id="mf50964df4a" d="M 0 0 
L 0 3.5 
" style="stroke: #000000; stroke-width: 0.8"/>
      </defs>
      <g>
       <use xlink:href="#mf50964df4a" x="55.261342" y="141.454854" style="stroke: #000000; stroke-width: 0.8"/>
      </g>
     </g>
     <g id="text_1">
      <text style="font: 10px 'Arial'; text-anchor: middle" x="55.261342" y="155.612666" transform="rotate(-0 55.261342 155.612666)">0</text>
     </g>
    </g>
    <g id="xtick_2">
     <g id="line2d_2">
      <g>
       <use xlink:href="#mf50964df4a" x="126.541356" y="141.454854" style="stroke: #000000; stroke-width: 0.8"/>
      </g>
     </g>
     <g id="text_2">
      <text style="font: 10px 'Arial'; text-anchor: middle" x="126.541356" y="155.612666" transform="rotate(-0 126.541356 155.612666)">20000</text>
     </g>
    </g>
    <g id="text_3">
     <text style="font: 10px 'Arial'; text-anchor: middle" x="86.623044" y="168.757979" transform="rotate(-0 86.623044 168.757979)">MSE</text>
    </g>
   </g>
   <g id="matplotlib.axis_2">
    <g id="ytick_1">
     <g id="line2d_3">
      <defs>
       <path id="ma16f99db2f" d="M 0 0 
L -3.5 0 
" style="stroke: #000000; stroke-width: 0.8"/>
      </defs>
      <g>
       <use xlink:href="#ma16f99db2f" x="43.123167" y="141.454854" style="stroke: #000000; stroke-width: 0.8"/>
      </g>
     </g>
     <g id="text_4">
      <text style="font: 10px 'Arial'; text-anchor: end" x="36.123167" y="145.03376" transform="rotate(-0 36.123167 145.03376)">0</text>
     </g>
    </g>
    <g id="ytick_2">
     <g id="line2d_4">
      <g>
       <use xlink:href="#ma16f99db2f" x="43.123167" y="117.767102" style="stroke: #000000; stroke-width: 0.8"/>
      </g>
     </g>
     <g id="text_5">
      <text style="font: 10px 'Arial'; text-anchor: end" x="36.123167" y="121.346008" transform="rotate(-0 36.123167 121.346008)">10</text>
     </g>
    </g>
    <g id="ytick_3">
     <g id="line2d_5">
      <g>
       <use xlink:href="#ma16f99db2f" x="43.123167" y="94.07935" style="stroke: #000000; stroke-width: 0.8"/>
      </g>
     </g>
     <g id="text_6">
      <text style="font: 10px 'Arial'; text-anchor: end" x="36.123167" y="97.658256" transform="rotate(-0 36.123167 97.658256)">20</text>
     </g>
    </g>
    <g id="ytick_4">
     <g id="line2d_6">
      <g>
       <use xlink:href="#ma16f99db2f" x="43.123167" y="70.391598" style="stroke: #000000; stroke-width: 0.8"/>
      </g>
     </g>
     <g id="text_7">
      <text style="font: 10px 'Arial'; text-anchor: end" x="36.123167" y="73.970504" transform="rotate(-0 36.123167 73.970504)">30</text>
     </g>
    </g>
    <g id="ytick_5">
     <g id="line2d_7">
      <g>
       <use xlink:href="#ma16f99db2f" x="43.123167" y="46.703846" style="stroke: #000000; stroke-width: 0.8"/>
      </g>
     </g>
     <g id="text_8">
      <text style="font: 10px 'Arial'; text-anchor: end" x="36.123167" y="50.282752" transform="rotate(-0 36.123167 50.282752)">40</text>
     </g>
    </g>
    <g id="text_9">
     <text style="font: 10px 'Arial'; text-anchor: middle" x="19.013792" y="87.979754" transform="rotate(-90 19.013792 87.979754)">Count</text>
    </g>
   </g>
   <g id="line2d_8">
    <path d="M 56.609348 141.454854 
L 56.609348 34.504654 
" clip-path="url(#p56af155128)" style="fill: none; stroke-dasharray: 5.55,2.4; stroke-dashoffset: 0; stroke: #ff0000; stroke-width: 1.5"/>
   </g>
   <g id="patch_76">
    <path d="M 43.123167 141.454854 
L 43.123167 34.504654 
" style="fill: none; stroke: #000000; stroke-width: 0.8; stroke-linejoin: miter; stroke-linecap: square"/>
   </g>
   <g id="patch_77">
    <path d="M 130.122921 141.454854 
L 130.122921 34.504654 
" style="fill: none; stroke: #000000; stroke-width: 0.8; stroke-linejoin: miter; stroke-linecap: square"/>
   </g>
   <g id="patch_78">
    <path d="M 43.123167 141.454854 
L 130.122921 141.454854 
" style="fill: none; stroke: #000000; stroke-width: 0.8; stroke-linejoin: miter; stroke-linecap: square"/>
   </g>
   <g id="patch_79">
    <path d="M 43.123167 34.504654 
L 130.122921 34.504654 
" style="fill: none; stroke: #000000; stroke-width: 0.8; stroke-linejoin: miter; stroke-linecap: square"/>
   </g>
   <g id="text_10">
    <text style="font: 12px 'Arial'; text-anchor: middle" x="86.623044" y="28.504654" transform="rotate(-0 86.623044 28.504654)">Entity-level splitting</text>
   </g>
   <g id="legend_1">
    <g id="patch_80">
     <path d="M 16.347921 56.649966 
L 123.122921 56.649966 
Q 125.122921 56.649966 125.122921 54.649966 
L 125.122921 41.504654 
Q 125.122921 39.504654 123.122921 39.504654 
L 16.347921 39.504654 
Q 14.347921 39.504654 14.347921 41.504654 
L 14.347921 54.649966 
Q 14.347921 56.649966 16.347921 56.649966 
z
" style="fill: #ffffff; opacity: 0.8; stroke: #cccccc; stroke-linejoin: miter"/>
    </g>
    <g id="line2d_9">
     <path d="M 18.347921 47.162466 
L 28.347921 47.162466 
L 38.347921 47.162466 
" style="fill: none; stroke-dasharray: 5.55,2.4; stroke-dashoffset: 0; stroke: #ff0000; stroke-width: 1.5"/>
    </g>
    <g id="text_11">
     <text style="font: 10px 'Arial'; text-anchor: start" x="46.347921" y="50.662466" transform="rotate(-0 46.347921 50.662466)">Median = 378.23</text>
    </g>
   </g>
  </g>
  <g id="axes_2">
   <g id="patch_81">
    <path d="M 225.116123 141.454854 
L 312.115878 141.454854 
L 312.115878 34.504654 
L 225.116123 34.504654 
z
" style="fill: #ffffff"/>
   </g>
   <g id="patch_82">
    <path d="M 241.670191 141.454854 
L 245.519592 141.454854 
L 245.519592 80.340454 
L 241.670191 80.340454 
z
" clip-path="url(#pf1b88e10f4)" style="fill: #04c4d9; fill-opacity: 0.75; stroke: #1d4273; stroke-opacity: 0.9; stroke-width: 0.842947; stroke-linejoin: miter"/>
   </g>
   <g id="patch_83">
    <path d="M 245.519592 141.454854 
L 249.368994 141.454854 
L 249.368994 68.117574 
L 245.519592 68.117574 
z
" clip-path="url(#pf1b88e10f4)" style="fill: #04c4d9; fill-opacity: 0.75; stroke: #1d4273; stroke-opacity: 0.9; stroke-width: 0.842947; stroke-linejoin: miter"/>
   </g>
   <g id="patch_84">
    <path d="M 249.368994 141.454854 
L 253.218395 141.454854 
L 253.218395 76.26616 
L 249.368994 76.26616 
z
" clip-path="url(#pf1b88e10f4)" style="fill: #04c4d9; fill-opacity: 0.75; stroke: #1d4273; stroke-opacity: 0.9; stroke-width: 0.842947; stroke-linejoin: miter"/>
   </g>
   <g id="patch_85">
    <path d="M 253.218395 141.454854 
L 257.067796 141.454854 
L 257.067796 39.59752 
L 253.218395 39.59752 
z
" clip-path="url(#pf1b88e10f4)" style="fill: #04c4d9; fill-opacity: 0.75; stroke: #1d4273; stroke-opacity: 0.9; stroke-width: 0.842947; stroke-linejoin: miter"/>
   </g>
   <g id="patch_86">
    <path d="M 257.067796 141.454854 
L 260.917198 141.454854 
L 260.917198 100.71192 
L 257.067796 100.71192 
z
" clip-path="url(#pf1b88e10f4)" style="fill: #04c4d9; fill-opacity: 0.75; stroke: #1d4273; stroke-opacity: 0.9; stroke-width: 0.842947; stroke-linejoin: miter"/>
   </g>
   <g id="patch_87">
    <path d="M 260.917198 141.454854 
L 264.766599 141.454854 
L 264.766599 133.306267 
L 260.917198 133.306267 
z
" clip-path="url(#pf1b88e10f4)" style="fill: #04c4d9; fill-opacity: 0.75; stroke: #1d4273; stroke-opacity: 0.9; stroke-width: 0.842947; stroke-linejoin: miter"/>
   </g>
   <g id="patch_88">
    <path d="M 264.766599 141.454854 
L 268.616 141.454854 
L 268.616 125.157681 
L 264.766599 125.157681 
z
" clip-path="url(#pf1b88e10f4)" style="fill: #04c4d9; fill-opacity: 0.75; stroke: #1d4273; stroke-opacity: 0.9; stroke-width: 0.842947; stroke-linejoin: miter"/>
   </g>
   <g id="patch_89">
    <path d="M 268.616 141.454854 
L 272.465402 141.454854 
L 272.465402 133.306267 
L 268.616 133.306267 
z
" clip-path="url(#pf1b88e10f4)" style="fill: #04c4d9; fill-opacity: 0.75; stroke: #1d4273; stroke-opacity: 0.9; stroke-width: 0.842947; stroke-linejoin: miter"/>
   </g>
   <g id="patch_90">
    <path d="M 272.465402 141.454854 
L 276.314803 141.454854 
L 276.314803 129.231974 
L 272.465402 129.231974 
z
" clip-path="url(#pf1b88e10f4)" style="fill: #04c4d9; fill-opacity: 0.75; stroke: #1d4273; stroke-opacity: 0.9; stroke-width: 0.842947; stroke-linejoin: miter"/>
   </g>
   <g id="patch_91">
    <path d="M 276.314803 141.454854 
L 280.164205 141.454854 
L 280.164205 133.306267 
L 276.314803 133.306267 
z
" clip-path="url(#pf1b88e10f4)" style="fill: #04c4d9; fill-opacity: 0.75; stroke: #1d4273; stroke-opacity: 0.9; stroke-width: 0.842947; stroke-linejoin: miter"/>
   </g>
   <g id="patch_92">
    <path d="M 280.164205 141.454854 
L 284.013606 141.454854 
L 284.013606 141.454854 
L 280.164205 141.454854 
z
" clip-path="url(#pf1b88e10f4)" style="fill: #04c4d9; fill-opacity: 0.75; stroke: #1d4273; stroke-opacity: 0.9; stroke-width: 0.842947; stroke-linejoin: miter"/>
   </g>
   <g id="patch_93">
    <path d="M 284.013606 141.454854 
L 287.863007 141.454854 
L 287.863007 141.454854 
L 284.013606 141.454854 
z
" clip-path="url(#pf1b88e10f4)" style="fill: #04c4d9; fill-opacity: 0.75; stroke: #1d4273; stroke-opacity: 0.9; stroke-width: 0.842947; stroke-linejoin: miter"/>
   </g>
   <g id="patch_94">
    <path d="M 287.863007 141.454854 
L 291.712409 141.454854 
L 291.712409 137.380561 
L 287.863007 137.380561 
z
" clip-path="url(#pf1b88e10f4)" style="fill: #04c4d9; fill-opacity: 0.75; stroke: #1d4273; stroke-opacity: 0.9; stroke-width: 0.842947; stroke-linejoin: miter"/>
   </g>
   <g id="patch_95">
    <path d="M 291.712409 141.454854 
L 295.56181 141.454854 
L 295.56181 133.306267 
L 291.712409 133.306267 
z
" clip-path="url(#pf1b88e10f4)" style="fill: #04c4d9; fill-opacity: 0.75; stroke: #1d4273; stroke-opacity: 0.9; stroke-width: 0.842947; stroke-linejoin: miter"/>
   </g>
   <g id="matplotlib.axis_3">
    <g id="xtick_3">
     <g id="line2d_10">
      <g>
       <use xlink:href="#mf50964df4a" x="238.025757" y="141.454854" style="stroke: #000000; stroke-width: 0.8"/>
      </g>
     </g>
     <g id="text_12">
      <text style="font: 10px 'Arial'; text-anchor: middle" x="238.025757" y="155.612666" transform="rotate(-0 238.025757 155.612666)">0</text>
     </g>
    </g>
    <g id="xtick_4">
     <g id="line2d_11">
      <g>
       <use xlink:href="#mf50964df4a" x="304.208721" y="141.454854" style="stroke: #000000; stroke-width: 0.8"/>
      </g>
     </g>
     <g id="text_13">
      <text style="font: 10px 'Arial'; text-anchor: middle" x="304.208721" y="155.612666" transform="rotate(-0 304.208721 155.612666)">500</text>
     </g>
    </g>
    <g id="text_14">
     <text style="font: 10px 'Arial'; text-anchor: middle" x="268.616" y="168.757979" transform="rotate(-0 268.616 168.757979)">MSE</text>
    </g>
   </g>
   <g id="matplotlib.axis_4">
    <g id="ytick_6">
     <g id="line2d_12">
      <g>
       <use xlink:href="#ma16f99db2f" x="225.116123" y="141.454854" style="stroke: #000000; stroke-width: 0.8"/>
      </g>
     </g>
     <g id="text_15">
      <text style="font: 10px 'Arial'; text-anchor: end" x="218.116123" y="145.03376" transform="rotate(-0 218.116123 145.03376)">0</text>
     </g>
    </g>
    <g id="ytick_7">
     <g id="line2d_13">
      <g>
       <use xlink:href="#ma16f99db2f" x="225.116123" y="100.71192" style="stroke: #000000; stroke-width: 0.8"/>
      </g>
     </g>
     <g id="text_16">
      <text style="font: 10px 'Arial'; text-anchor: end" x="218.116123" y="104.290827" transform="rotate(-0 218.116123 104.290827)">10</text>
     </g>
    </g>
    <g id="ytick_8">
     <g id="line2d_14">
      <g>
       <use xlink:href="#ma16f99db2f" x="225.116123" y="59.968987" style="stroke: #000000; stroke-width: 0.8"/>
      </g>
     </g>
     <g id="text_17">
      <text style="font: 10px 'Arial'; text-anchor: end" x="218.116123" y="63.547893" transform="rotate(-0 218.116123 63.547893)">20</text>
     </g>
    </g>
    <g id="text_18">
     <text style="font: 10px 'Arial'; text-anchor: middle" x="201.006748" y="87.979754" transform="rotate(-90 201.006748 87.979754)">Count</text>
    </g>
   </g>
   <g id="line2d_15">
    <path d="M 253.457831 141.454854 
L 253.457831 34.504654 
" clip-path="url(#pf1b88e10f4)" style="fill: none; stroke-dasharray: 5.55,2.4; stroke-dashoffset: 0; stroke: #ff0000; stroke-width: 1.5"/>
   </g>
   <g id="patch_96">
    <path d="M 225.116123 141.454854 
L 225.116123 34.504654 
" style="fill: none; stroke: #000000; stroke-width: 0.8; stroke-linejoin: miter; stroke-linecap: square"/>
   </g>
   <g id="patch_97">
    <path d="M 312.115878 141.454854 
L 312.115878 34.504654 
" style="fill: none; stroke: #000000; stroke-width: 0.8; stroke-linejoin: miter; stroke-linecap: square"/>
   </g>
   <g id="patch_98">
    <path d="M 225.116123 141.454854 
L 312.115878 141.454854 
" style="fill: none; stroke: #000000; stroke-width: 0.8; stroke-linejoin: miter; stroke-linecap: square"/>
   </g>
   <g id="patch_99">
    <path d="M 225.116123 34.504654 
L 312.115878 34.504654 
" style="fill: none; stroke: #000000; stroke-width: 0.8; stroke-linejoin: miter; stroke-linecap: square"/>
   </g>
   <g id="text_19">
    <text style="font: 12px 'Arial'; text-anchor: middle" x="268.616" y="28.504654" transform="rotate(-0 268.616 28.504654)">Observation-level splitting</text>
   </g>
   <g id="legend_2">
    <g id="patch_100">
     <path d="M 199.078378 56.649966 
L 305.115878 56.649966 
Q 307.115878 56.649966 307.115878 54.649966 
L 307.115878 41.504654 
Q 307.115878 39.504654 305.115878 39.504654 
L 199.078378 39.504654 
Q 197.078378 39.504654 197.078378 41.504654 
L 197.078378 54.649966 
Q 197.078378 56.649966 199.078378 56.649966 
z
" style="fill: #ffffff; opacity: 0.8; stroke: #cccccc; stroke-linejoin: miter"/>
    </g>
    <g id="line2d_16">
     <path d="M 201.078378 47.162466 
L 211.078378 47.162466 
L 221.078378 47.162466 
" style="fill: none; stroke-dasharray: 5.55,2.4; stroke-dashoffset: 0; stroke: #ff0000; stroke-width: 1.5"/>
    </g>
    <g id="text_20">
     <text style="font: 10px 'Arial'; text-anchor: start" x="229.078378" y="50.662466" transform="rotate(-0 229.078378 50.662466)">Median = 116.59</text>
    </g>
   </g>
  </g>
  <g id="axes_3">
   <g id="matplotlib.axis_5">
    <g id="ytick_9">
     <g id="line2d_17">
      <defs>
       <path id="m63d64eb7a9" d="M 0 0 
L 3.5 0 
" style="stroke: #000000; stroke-width: 0.8"/>
      </defs>
      <g>
       <use xlink:href="#m63d64eb7a9" x="130.122921" y="141.454854" style="stroke: #000000; stroke-width: 0.8"/>
      </g>
     </g>
     <g id="text_21">
      <text style="font: 10px 'Arial'; text-anchor: start" x="137.122921" y="145.03376" transform="rotate(-0 137.122921 145.03376)">0.0000</text>
     </g>
    </g>
    <g id="ytick_10">
     <g id="line2d_18">
      <g>
       <use xlink:href="#m63d64eb7a9" x="130.122921" y="117.943964" style="stroke: #000000; stroke-width: 0.8"/>
      </g>
     </g>
     <g id="text_22">
      <text style="font: 10px 'Arial'; text-anchor: start" x="137.122921" y="121.52287" transform="rotate(-0 137.122921 121.52287)">0.0001</text>
     </g>
    </g>
    <g id="ytick_11">
     <g id="line2d_19">
      <g>
       <use xlink:href="#m63d64eb7a9" x="130.122921" y="94.433073" style="stroke: #000000; stroke-width: 0.8"/>
      </g>
     </g>
     <g id="text_23">
      <text style="font: 10px 'Arial'; text-anchor: start" x="137.122921" y="98.01198" transform="rotate(-0 137.122921 98.01198)">0.0002</text>
     </g>
    </g>
    <g id="ytick_12">
     <g id="line2d_20">
      <g>
       <use xlink:href="#m63d64eb7a9" x="130.122921" y="70.922183" style="stroke: #000000; stroke-width: 0.8"/>
      </g>
     </g>
     <g id="text_24">
      <text style="font: 10px 'Arial'; text-anchor: start" x="137.122921" y="74.501089" transform="rotate(-0 137.122921 74.501089)">0.0003</text>
     </g>
    </g>
    <g id="ytick_13">
     <g id="line2d_21">
      <g>
       <use xlink:href="#m63d64eb7a9" x="130.122921" y="47.411293" style="stroke: #000000; stroke-width: 0.8"/>
      </g>
     </g>
     <g id="text_25">
      <text style="font: 10px 'Arial'; text-anchor: start" x="137.122921" y="50.990199" transform="rotate(-0 137.122921 50.990199)">0.0004</text>
     </g>
    </g>
    <g id="text_26">
     <text style="font: 10px 'Arial'; text-anchor: middle" x="178.863546" y="87.979754" transform="rotate(-90 178.863546 87.979754)">Density</text>
    </g>
   </g>
   <g id="line2d_22">
    <path d="M 47.077701 141.021149 
L 47.872582 140.40304 
L 48.270023 139.865399 
L 48.667463 139.100493 
L 49.064904 138.036369 
L 49.462345 136.589085 
L 49.859785 134.66517 
L 50.654667 128.995712 
L 51.449548 120.321249 
L 52.244429 108.298398 
L 53.436751 85.077392 
L 55.026513 53.696558 
L 55.821395 43.458677 
L 56.218835 40.66055 
L 56.616276 39.59752 
L 57.013717 40.293455 
L 57.411157 42.676006 
L 57.808598 46.584715 
L 58.603479 57.998172 
L 61.385564 105.725533 
L 62.180445 115.196071 
L 62.975326 122.204839 
L 63.770207 127.242547 
L 64.565089 130.873894 
L 65.35997 133.554192 
L 66.154851 135.572436 
L 66.949732 137.083298 
L 67.744614 138.173153 
L 68.539495 138.916167 
L 69.334376 139.399789 
L 70.526698 139.848472 
L 74.501105 140.918966 
L 75.693426 141.02895 
L 76.885748 140.944131 
L 78.872951 140.514843 
L 80.462714 140.253658 
L 81.655036 140.285322 
L 83.244798 140.610586 
L 86.026883 141.240791 
L 88.014086 141.411866 
L 92.385933 141.454653 
L 111.463083 141.376545 
L 113.450287 141.127758 
L 118.219574 140.248309 
L 119.411896 140.408663 
L 123.783743 141.330233 
L 126.168387 141.441365 
L 126.168387 141.441365 
" clip-path="url(#p56af155128)" style="fill: none; stroke: #ce3d30; stroke-width: 2; stroke-linecap: square"/>
   </g>
   <g id="patch_101">
    <path d="M 43.123167 141.454854 
L 43.123167 34.504654 
" style="fill: none; stroke: #000000; stroke-width: 0.8; stroke-linejoin: miter; stroke-linecap: square"/>
   </g>
   <g id="patch_102">
    <path d="M 130.122921 141.454854 
L 130.122921 34.504654 
" style="fill: none; stroke: #000000; stroke-width: 0.8; stroke-linejoin: miter; stroke-linecap: square"/>
   </g>
   <g id="patch_103">
    <path d="M 43.123167 141.454854 
L 130.122921 141.454854 
" style="fill: none; stroke: #000000; stroke-width: 0.8; stroke-linejoin: miter; stroke-linecap: square"/>
   </g>
   <g id="patch_104">
    <path d="M 43.123167 34.504654 
L 130.122921 34.504654 
" style="fill: none; stroke: #000000; stroke-width: 0.8; stroke-linejoin: miter; stroke-linecap: square"/>
   </g>
  </g>
  <g id="axes_4">
   <g id="matplotlib.axis_6">
    <g id="ytick_14">
     <g id="line2d_23">
      <g>
       <use xlink:href="#m63d64eb7a9" x="312.115878" y="141.454854" style="stroke: #000000; stroke-width: 0.8"/>
      </g>
     </g>
     <g id="text_27">
      <text style="font: 10px 'Arial'; text-anchor: start" x="319.115878" y="145.03376" transform="rotate(-0 319.115878 145.03376)">0.000</text>
     </g>
    </g>
    <g id="ytick_15">
     <g id="line2d_24">
      <g>
       <use xlink:href="#m63d64eb7a9" x="312.115878" y="109.172713" style="stroke: #000000; stroke-width: 0.8"/>
      </g>
     </g>
     <g id="text_28">
      <text style="font: 10px 'Arial'; text-anchor: start" x="319.115878" y="112.751619" transform="rotate(-0 319.115878 112.751619)">0.002</text>
     </g>
    </g>
    <g id="ytick_16">
     <g id="line2d_25">
      <g>
       <use xlink:href="#m63d64eb7a9" x="312.115878" y="76.890572" style="stroke: #000000; stroke-width: 0.8"/>
      </g>
     </g>
     <g id="text_29">
      <text style="font: 10px 'Arial'; text-anchor: start" x="319.115878" y="80.469478" transform="rotate(-0 319.115878 80.469478)">0.004</text>
     </g>
    </g>
    <g id="ytick_17">
     <g id="line2d_26">
      <g>
       <use xlink:href="#m63d64eb7a9" x="312.115878" y="44.608431" style="stroke: #000000; stroke-width: 0.8"/>
      </g>
     </g>
     <g id="text_30">
      <text style="font: 10px 'Arial'; text-anchor: start" x="319.115878" y="48.187337" transform="rotate(-0 319.115878 48.187337)">0.006</text>
     </g>
    </g>
    <g id="text_31">
     <text style="font: 10px 'Arial'; text-anchor: middle" x="355.295565" y="87.979754" transform="rotate(-90 355.295565 87.979754)">Density</text>
    </g>
   </g>
   <g id="line2d_27">
    <path d="M 229.070657 141.353268 
L 230.66042 141.122225 
L 231.852742 140.710884 
L 232.647623 140.231977 
L 233.442504 139.506755 
L 234.237386 138.445853 
L 235.032267 136.946493 
L 235.827148 134.899078 
L 236.62203 132.197485 
L 237.416911 128.752457 
L 238.211792 124.506551 
L 239.404114 116.626151 
L 240.596436 107.134875 
L 242.98108 85.519106 
L 244.968283 68.30674 
L 246.160605 59.588884 
L 247.352927 52.409103 
L 248.545249 46.791073 
L 249.34013 43.897057 
L 250.135011 41.695982 
L 250.929892 40.235202 
L 251.327333 39.806861 
L 251.724774 39.59636 
L 252.122214 39.617196 
L 252.519655 39.882856 
L 252.917095 40.405962 
L 253.314536 41.197378 
L 254.109417 43.614824 
L 254.904299 47.157174 
L 255.69918 51.776284 
L 256.891502 60.434011 
L 258.481264 74.066983 
L 260.865908 94.739719 
L 262.05823 103.519818 
L 263.250552 110.670079 
L 264.442874 116.103544 
L 265.237755 118.840122 
L 266.032636 120.965739 
L 266.827518 122.584513 
L 267.622399 123.803922 
L 268.41728 124.723612 
L 269.609602 125.721001 
L 271.199365 126.645521 
L 274.77633 128.511911 
L 275.968652 129.463355 
L 277.160974 130.702752 
L 278.750737 132.737987 
L 281.532821 136.395974 
L 282.725143 137.545634 
L 283.520024 138.077204 
L 284.314905 138.405077 
L 285.109787 138.533427 
L 285.904668 138.480796 
L 287.09699 138.131855 
L 289.084193 137.184379 
L 290.673956 136.501779 
L 291.866278 136.22639 
L 293.058599 136.228084 
L 294.250921 136.514314 
L 295.443243 137.043008 
L 297.430446 138.244967 
L 299.81509 139.70231 
L 301.404853 140.440673 
L 302.994615 140.934889 
L 304.981818 141.265975 
L 307.366462 141.412097 
L 308.161343 141.430488 
L 308.161343 141.430488 
" clip-path="url(#pf1b88e10f4)" style="fill: none; stroke: #1d4273; stroke-width: 2; stroke-linecap: square"/>
   </g>
   <g id="patch_105">
    <path d="M 225.116123 141.454854 
L 225.116123 34.504654 
" style="fill: none; stroke: #000000; stroke-width: 0.8; stroke-linejoin: miter; stroke-linecap: square"/>
   </g>
   <g id="patch_106">
    <path d="M 312.115878 141.454854 
L 312.115878 34.504654 
" style="fill: none; stroke: #000000; stroke-width: 0.8; stroke-linejoin: miter; stroke-linecap: square"/>
   </g>
   <g id="patch_107">
    <path d="M 225.116123 141.454854 
L 312.115878 141.454854 
" style="fill: none; stroke: #000000; stroke-width: 0.8; stroke-linejoin: miter; stroke-linecap: square"/>
   </g>
   <g id="patch_108">
    <path d="M 225.116123 34.504654 
L 312.115878 34.504654 
" style="fill: none; stroke: #000000; stroke-width: 0.8; stroke-linejoin: miter; stroke-linecap: square"/>
   </g>
  </g>
 </g>
 <defs>
  <clipPath id="p56af155128">
   <rect x="43.123167" y="34.504654" width="86.999755" height="106.9502"/>
  </clipPath>
  <clipPath id="pf1b88e10f4">
   <rect x="225.116123" y="34.504654" width="86.999755" height="106.9502"/>
  </clipPath>
 </defs>
</svg>
